<?xml version="1.0" encoding="UTF-8" standalone="no"?>
<!DOCTYPE svg PUBLIC "-//W3C//DTD SVG 1.1//EN"
 "http://www.w3.org/Graphics/SVG/1.1/DTD/svg11.dtd">
<!-- Generated by graphviz version 2.38.0 (20140413.2041)
 -->
<!-- Title: G Pages: 1 -->
<svg width="506pt" height="704pt"
 viewBox="0.00 0.00 505.85 704.00" xmlns="http://www.w3.org/2000/svg" xmlns:xlink="http://www.w3.org/1999/xlink">
<g id="graph0" class="graph" transform="scale(1 1) rotate(0) translate(4 700)">
<title>G</title>
<polygon fill="white" stroke="none" points="-4,4 -4,-700 501.854,-700 501.854,4 -4,4"/>
<g id="clust1" class="cluster"><title>cluster_Global</title>
<path fill="none" stroke="gray" d="M20,-44C20,-44 477.854,-44 477.854,-44 483.854,-44 489.854,-50 489.854,-56 489.854,-56 489.854,-676 489.854,-676 489.854,-682 483.854,-688 477.854,-688 477.854,-688 20,-688 20,-688 14,-688 8,-682 8,-676 8,-676 8,-56 8,-56 8,-50 14,-44 20,-44"/>
<text text-anchor="middle" x="248.927" y="-675.2" font-family="Times,serif" font-size="11.00" fill="gray">Global</text>
</g>
<g id="clust2" class="cluster"><title>cluster_\app</title>
<path fill="none" stroke="gray" d="M371.921,-447C371.921,-447 469.854,-447 469.854,-447 475.854,-447 481.854,-453 481.854,-459 481.854,-459 481.854,-649 481.854,-649 481.854,-655 475.854,-661 469.854,-661 469.854,-661 371.921,-661 371.921,-661 365.921,-661 359.921,-655 359.921,-649 359.921,-649 359.921,-459 359.921,-459 359.921,-453 365.921,-447 371.921,-447"/>
<text text-anchor="middle" x="420.887" y="-648.2" font-family="Times,serif" font-size="11.00" fill="gray">app</text>
</g>
<g id="clust3" class="cluster"><title>cluster_\app\controllers</title>
<path fill="none" stroke="gray" d="M379.921,-455C379.921,-455 461.854,-455 461.854,-455 467.854,-455 473.854,-461 473.854,-467 473.854,-467 473.854,-622 473.854,-622 473.854,-628 467.854,-634 461.854,-634 461.854,-634 379.921,-634 379.921,-634 373.921,-634 367.921,-628 367.921,-622 367.921,-622 367.921,-467 367.921,-467 367.921,-461 373.921,-455 379.921,-455"/>
<text text-anchor="middle" x="420.887" y="-621.2" font-family="Times,serif" font-size="11.00" fill="gray">controllers</text>
</g>
<g id="clust4" class="cluster"><title>cluster_\erdiko</title>
<path fill="none" stroke="gray" d="M28,-52C28,-52 289.85,-52 289.85,-52 295.85,-52 301.85,-58 301.85,-64 301.85,-64 301.85,-649 301.85,-649 301.85,-655 295.85,-661 289.85,-661 289.85,-661 28,-661 28,-661 22,-661 16,-655 16,-649 16,-649 16,-64 16,-64 16,-58 22,-52 28,-52"/>
<text text-anchor="middle" x="158.925" y="-648.2" font-family="Times,serif" font-size="11.00" fill="gray">erdiko</text>
</g>
<g id="clust5" class="cluster"><title>cluster_\erdiko\core</title>
<path fill="none" stroke="gray" d="M36,-60C36,-60 281.85,-60 281.85,-60 287.85,-60 293.85,-66 293.85,-72 293.85,-72 293.85,-622 293.85,-622 293.85,-628 287.85,-634 281.85,-634 281.85,-634 36,-634 36,-634 30,-634 24,-628 24,-622 24,-622 24,-72 24,-72 24,-66 30,-60 36,-60"/>
<text text-anchor="middle" x="158.925" y="-621.2" font-family="Times,serif" font-size="11.00" fill="gray">core</text>
</g>
<g id="clust6" class="cluster"><title>cluster_\erdiko\core\cache</title>
<path fill="none" stroke="gray" d="M44,-438C44,-438 273.85,-438 273.85,-438 279.85,-438 285.85,-444 285.85,-450 285.85,-450 285.85,-551 285.85,-551 285.85,-557 279.85,-563 273.85,-563 273.85,-563 44,-563 44,-563 38,-563 32,-557 32,-551 32,-551 32,-450 32,-450 32,-444 38,-438 44,-438"/>
<text text-anchor="middle" x="158.925" y="-550.2" font-family="Times,serif" font-size="11.00" fill="gray">cache</text>
</g>
<g id="clust7" class="cluster"><title>cluster_\erdiko\core\datasource</title>
<path fill="none" stroke="gray" d="M58.2793,-359C58.2793,-359 104.279,-359 104.279,-359 110.279,-359 116.279,-365 116.279,-371 116.279,-371 116.279,-418 116.279,-418 116.279,-424 110.279,-430 104.279,-430 104.279,-430 58.2793,-430 58.2793,-430 52.2793,-430 46.2793,-424 46.2793,-418 46.2793,-418 46.2793,-371 46.2793,-371 46.2793,-365 52.2793,-359 58.2793,-359"/>
<text text-anchor="middle" x="81.2793" y="-417.2" font-family="Times,serif" font-size="11.00" fill="gray">datasource</text>
</g>
<!-- \\app\\controllers\\AjaxExample -->
<g id="node1" class="node"><title>\\app\\controllers\\AjaxExample</title>
<polygon fill="none" stroke="black" points="459.367,-499 382.407,-499 382.407,-463 459.367,-463 459.367,-499"/>
<text text-anchor="middle" x="420.887" y="-477.7" font-family="Times,serif" font-size="11.00">AjaxExample</text>
</g>
<!-- \\erdiko\\core\\AjaxController -->
<g id="node8" class="node"><title>\\erdiko\\core\\AjaxController</title>
<polygon fill="none" stroke="black" points="284.073,-607 201.878,-607 201.878,-571 284.073,-571 284.073,-607"/>
<text text-anchor="middle" x="242.976" y="-585.7" font-family="Times,serif" font-size="11.00">AjaxController</text>
</g>
<!-- \\app\\controllers\\AjaxExample&#45;&gt;\\erdiko\\core\\AjaxController -->
<g id="edge1" class="edge"><title>\\app\\controllers\\AjaxExample&#45;&gt;\\erdiko\\core\\AjaxController</title>
<path fill="none" stroke="black" d="M382.57,-495.216C374.79,-498.88 366.855,-503.172 359.921,-508 329.725,-529.023 332.66,-546.889 301.85,-567 299.149,-568.763 296.287,-570.414 293.338,-571.957"/>
<polygon fill="none" stroke="black" points="291.829,-568.799 284.305,-576.258 294.839,-575.119 291.829,-568.799"/>
</g>
<!-- \\app\\controllers\\Example -->
<g id="node2" class="node"><title>\\app\\controllers\\Example</title>
<polygon fill="none" stroke="black" points="448.483,-553 393.291,-553 393.291,-517 448.483,-517 448.483,-553"/>
<text text-anchor="middle" x="420.887" y="-531.7" font-family="Times,serif" font-size="11.00">Example</text>
</g>
<!-- \\erdiko\\core\\Controller -->
<g id="node12" class="node"><title>\\erdiko\\core\\Controller</title>
<polygon fill="none" stroke="black" points="111.994,-607 50.5651,-607 50.5651,-571 111.994,-571 111.994,-607"/>
<text text-anchor="middle" x="81.2793" y="-585.7" font-family="Times,serif" font-size="11.00">Controller</text>
</g>
<!-- \\app\\controllers\\Example&#45;&gt;\\erdiko\\core\\Controller -->
<g id="edge2" class="edge"><title>\\app\\controllers\\Example&#45;&gt;\\erdiko\\core\\Controller</title>
<path fill="none" stroke="black" d="M393.234,-544.8C382.472,-549.309 370.194,-555.18 359.921,-562 330.559,-581.493 333.429,-600.351 301.85,-616 278.461,-627.591 270.031,-624.43 243.976,-626"/>
<path fill="none" stroke="black" d="M241.976,-626C200.14,-628.521 153.59,-615.897 121.594,-604.719"/>
<polygon fill="none" stroke="black" points="122.747,-601.414 112.153,-601.315 120.373,-607.999 122.747,-601.414"/>
</g>
<!-- \\app\\controllers\\ShopifyExample -->
<g id="node3" class="node"><title>\\app\\controllers\\ShopifyExample</title>
<polygon fill="none" stroke="black" points="465.82,-607 375.954,-607 375.954,-571 465.82,-571 465.82,-607"/>
<text text-anchor="middle" x="420.887" y="-585.7" font-family="Times,serif" font-size="11.00">ShopifyExample</text>
</g>
<!-- \\app\\controllers\\ShopifyExample&#45;&gt;\\erdiko\\core\\Controller -->
<g id="edge3" class="edge"><title>\\app\\controllers\\ShopifyExample&#45;&gt;\\erdiko\\core\\Controller</title>
<path fill="none" stroke="black" d="M375.916,-602.008C340.626,-611.53 289.613,-623.25 243.976,-626"/>
</g>
<!-- \\erdiko\\core\\cache\\File -->
<g id="node4" class="node"><title>\\erdiko\\core\\cache\\File</title>
<polygon fill="none" stroke="black" points="269.976,-482 215.976,-482 215.976,-446 269.976,-446 269.976,-482"/>
<text text-anchor="middle" x="242.976" y="-460.7" font-family="Times,serif" font-size="11.00">File</text>
</g>
<!-- \\erdiko\\core\\cache\\CacheInterface -->
<g id="node6" class="node"><title>\\erdiko\\core\\cache\\CacheInterface</title>
<polygon fill="none" stroke="black" points="122.339,-509 40.2195,-509 40.2195,-473 122.339,-473 122.339,-509"/>
<text text-anchor="middle" x="81.2793" y="-487.7" font-family="Times,serif" font-size="11.00">CacheInterface</text>
</g>
<!-- \\erdiko\\core\\cache\\File&#45;&gt;\\erdiko\\core\\cache\\CacheInterface -->
<g id="edge7" class="edge"><title>\\erdiko\\core\\cache\\File&#45;&gt;\\erdiko\\core\\cache\\CacheInterface</title>
<path fill="none" stroke="black" stroke-dasharray="1,5" d="M215.962,-468.398C193.371,-472.218 160.018,-477.857 132.278,-482.547"/>
<polygon fill="none" stroke="black" points="131.62,-479.108 122.343,-484.226 132.787,-486.01 131.62,-479.108"/>
</g>
<!-- \\erdiko\\core\\datasource\\File -->
<g id="node7" class="node"><title>\\erdiko\\core\\datasource\\File</title>
<polygon fill="none" stroke="black" points="108.279,-403 54.2793,-403 54.2793,-367 108.279,-367 108.279,-403"/>
<text text-anchor="middle" x="81.2793" y="-381.7" font-family="Times,serif" font-size="11.00">File</text>
</g>
<!-- \\erdiko\\core\\cache\\File&#45;&gt;\\erdiko\\core\\datasource\\File -->
<g id="edge6" class="edge"><title>\\erdiko\\core\\cache\\File&#45;&gt;\\erdiko\\core\\datasource\\File</title>
<path fill="none" stroke="black" d="M215.81,-452.061C208.878,-448.843 201.416,-445.33 194.559,-442 168.576,-429.382 139.506,-414.606 117.455,-403.26"/>
<polygon fill="none" stroke="black" points="118.956,-400.096 108.464,-398.623 115.748,-406.317 118.956,-400.096"/>
</g>
<!-- \\erdiko\\core\\cache\\Memcached -->
<g id="node5" class="node"><title>\\erdiko\\core\\cache\\Memcached</title>
<polygon fill="none" stroke="black" points="277.725,-536 208.227,-536 208.227,-500 277.725,-500 277.725,-536"/>
<text text-anchor="middle" x="242.976" y="-514.7" font-family="Times,serif" font-size="11.00">Memcached</text>
</g>
<!-- \\erdiko\\core\\cache\\Memcached&#45;&gt;\\erdiko\\core\\cache\\CacheInterface -->
<g id="edge8" class="edge"><title>\\erdiko\\core\\cache\\Memcached&#45;&gt;\\erdiko\\core\\cache\\CacheInterface</title>
<path fill="none" stroke="black" stroke-dasharray="1,5" d="M208.108,-512.274C186.14,-508.56 157.127,-503.655 132.498,-499.49"/>
<polygon fill="none" stroke="black" points="133.04,-496.033 122.597,-497.817 131.873,-502.935 133.04,-496.033"/>
</g>
<!-- \\erdiko\\core\\AjaxController&#45;&gt;\\erdiko\\core\\Controller -->
<g id="edge4" class="edge"><title>\\erdiko\\core\\AjaxController&#45;&gt;\\erdiko\\core\\Controller</title>
<path fill="none" stroke="black" d="M201.677,-589C177.37,-589 146.52,-589 122.268,-589"/>
<polygon fill="none" stroke="black" points="121.978,-585.5 111.978,-589 121.978,-592.5 121.978,-585.5"/>
</g>
<!-- \\erdiko\\core\\AjaxResponse -->
<g id="node9" class="node"><title>\\erdiko\\core\\AjaxResponse</title>
<polygon fill="none" stroke="black" points="282.522,-320 203.429,-320 203.429,-284 282.522,-284 282.522,-320"/>
<text text-anchor="middle" x="242.976" y="-298.7" font-family="Times,serif" font-size="11.00">AjaxResponse</text>
</g>
<!-- \\erdiko\\core\\Response -->
<g id="node16" class="node"><title>\\erdiko\\core\\Response</title>
<polygon fill="none" stroke="black" points="110.443,-320 52.116,-320 52.116,-284 110.443,-284 110.443,-320"/>
<text text-anchor="middle" x="81.2793" y="-298.7" font-family="Times,serif" font-size="11.00">Response</text>
</g>
<!-- \\erdiko\\core\\AjaxResponse&#45;&gt;\\erdiko\\core\\Response -->
<g id="edge5" class="edge"><title>\\erdiko\\core\\AjaxResponse&#45;&gt;\\erdiko\\core\\Response</title>
<path fill="none" stroke="black" d="M203.318,-302C178.279,-302 145.798,-302 120.789,-302"/>
<polygon fill="none" stroke="black" points="120.571,-298.5 110.571,-302 120.571,-305.5 120.571,-298.5"/>
</g>
<!-- \\erdiko\\core\\Cache -->
<g id="node10" class="node"><title>\\erdiko\\core\\Cache</title>
<polygon fill="none" stroke="black" points="269.976,-374 215.976,-374 215.976,-338 269.976,-338 269.976,-374"/>
<text text-anchor="middle" x="242.976" y="-352.7" font-family="Times,serif" font-size="11.00">Cache</text>
</g>
<!-- \\erdiko\\core\\Container -->
<g id="node11" class="node"><title>\\erdiko\\core\\Container</title>
<polygon fill="none" stroke="black" points="111.983,-158 50.5758,-158 50.5758,-122 111.983,-122 111.983,-158"/>
<text text-anchor="start" x="58.6777" y="-142.2" font-family="Times,serif" font-size="11.00">«abstract»</text>
<text text-anchor="start" x="59.5908" y="-131.2" font-family="Times,serif" font-size="11.00">Container</text>
</g>
<!-- \\erdiko\\core\\Layout -->
<g id="node13" class="node"><title>\\erdiko\\core\\Layout</title>
<polygon fill="none" stroke="black" points="269.976,-266 215.976,-266 215.976,-230 269.976,-230 269.976,-266"/>
<text text-anchor="middle" x="242.976" y="-244.7" font-family="Times,serif" font-size="11.00">Layout</text>
</g>
<!-- \\erdiko\\core\\Layout&#45;&gt;\\erdiko\\core\\Container -->
<g id="edge9" class="edge"><title>\\erdiko\\core\\Layout&#45;&gt;\\erdiko\\core\\Container</title>
<path fill="none" stroke="black" d="M215.589,-233.64C208.659,-229.689 201.252,-225.303 194.559,-221 166.59,-203.022 136.064,-180.823 113.911,-164.213"/>
<polygon fill="none" stroke="black" points="115.946,-161.364 105.853,-158.142 111.733,-166.955 115.946,-161.364"/>
</g>
<!-- \\erdiko\\core\\Logger -->
<g id="node14" class="node"><title>\\erdiko\\core\\Logger</title>
<polygon fill="none" stroke="black" points="269.976,-428 215.976,-428 215.976,-392 269.976,-392 269.976,-428"/>
<text text-anchor="middle" x="242.976" y="-406.7" font-family="Times,serif" font-size="11.00">Logger</text>
</g>
<!-- \\erdiko\\core\\Logger&#45;&gt;\\erdiko\\core\\datasource\\File -->
<g id="edge10" class="edge"><title>\\erdiko\\core\\Logger&#45;&gt;\\erdiko\\core\\datasource\\File</title>
<path fill="none" stroke="black" d="M215.962,-405.928C189.398,-401.769 147.953,-395.281 118.253,-390.632"/>
<polygon fill="none" stroke="black" points="118.703,-387.159 108.282,-389.071 117.62,-394.075 118.703,-387.159"/>
</g>
<!-- \\erdiko\\core\\ModelAbstract -->
<g id="node15" class="node"><title>\\erdiko\\core\\ModelAbstract</title>
<polygon fill="none" stroke="black" points="283.959,-212 201.992,-212 201.992,-176 283.959,-176 283.959,-212"/>
<text text-anchor="start" x="220.374" y="-196.2" font-family="Times,serif" font-size="11.00">«abstract»</text>
<text text-anchor="start" x="209.984" y="-185.2" font-family="Times,serif" font-size="11.00">ModelAbstract</text>
</g>
<!-- \\erdiko\\core\\Theme -->
<g id="node17" class="node"><title>\\erdiko\\core\\Theme</title>
<polygon fill="none" stroke="black" points="269.976,-158 215.976,-158 215.976,-122 269.976,-122 269.976,-158"/>
<text text-anchor="middle" x="242.976" y="-136.7" font-family="Times,serif" font-size="11.00">Theme</text>
</g>
<!-- \\erdiko\\core\\Theme&#45;&gt;\\erdiko\\core\\Container -->
<g id="edge11" class="edge"><title>\\erdiko\\core\\Theme&#45;&gt;\\erdiko\\core\\Container</title>
<path fill="none" stroke="black" d="M215.962,-140C190.616,-140 151.723,-140 122.41,-140"/>
<polygon fill="none" stroke="black" points="122.087,-136.5 112.087,-140 122.087,-143.5 122.087,-136.5"/>
</g>
<!-- \\erdiko\\core\\View -->
<g id="node18" class="node"><title>\\erdiko\\core\\View</title>
<polygon fill="none" stroke="black" points="269.976,-104 215.976,-104 215.976,-68 269.976,-68 269.976,-104"/>
<text text-anchor="middle" x="242.976" y="-82.7" font-family="Times,serif" font-size="11.00">View</text>
</g>
<!-- \\erdiko\\core\\View&#45;&gt;\\erdiko\\core\\Container -->
<g id="edge12" class="edge"><title>\\erdiko\\core\\View&#45;&gt;\\erdiko\\core\\Container</title>
<path fill="none" stroke="black" d="M215.962,-94.7962C190.393,-103.442 151.039,-116.749 121.641,-126.69"/>
<polygon fill="none" stroke="black" points="120.439,-123.402 112.087,-129.921 122.681,-130.033 120.439,-123.402"/>
</g>
<!-- \\Erdiko -->
<g id="node19" class="node"><title>\\Erdiko</title>
<polygon fill="none" stroke="black" points="447.887,-392 393.887,-392 393.887,-356 447.887,-356 447.887,-392"/>
<text text-anchor="middle" x="420.887" y="-370.7" font-family="Times,serif" font-size="11.00">Erdiko</text>
</g>
<!-- \\Shopify -->
<g id="node20" class="node"><title>\\Shopify</title>
<polygon fill="none" stroke="black" points="447.887,-244 393.887,-244 393.887,-208 447.887,-208 447.887,-244"/>
<text text-anchor="middle" x="420.887" y="-222.7" font-family="Times,serif" font-size="11.00">Shopify</text>
</g>
<!-- \\ShopifyCurlException -->
<g id="node21" class="node"><title>\\ShopifyCurlException</title>
<polygon fill="none" stroke="black" points="478.376,-142 363.398,-142 363.398,-106 478.376,-106 478.376,-142"/>
<text text-anchor="middle" x="420.887" y="-120.7" font-family="Times,serif" font-size="11.00">ShopifyCurlException</text>
</g>
<!-- \\Exception -->
<g id="node23" class="node"><title>\\Exception</title>
<ellipse fill="none" stroke="black" cx="242.976" cy="-18" rx="48.3341" ry="18"/>
<text text-anchor="middle" x="242.976" y="-13.8" font-family="Times,serif" font-size="14.00" fill="gray">\Exception</text>
</g>
<!-- \\ShopifyCurlException&#45;&gt;\\Exception -->
<g id="edge13" class="edge"><title>\\ShopifyCurlException&#45;&gt;\\Exception</title>
<path fill="none" stroke="black" d="M377.12,-105.963C371.251,-103.137 365.374,-100.114 359.921,-97 332.486,-81.3315 327.963,-73.7839 301.85,-56 293.665,-50.4261 284.755,-44.5043 276.434,-39.0358"/>
<polygon fill="none" stroke="black" points="278.314,-36.0835 268.03,-33.5348 274.48,-41.9402 278.314,-36.0835"/>
</g>
<!-- \\ShopifyApiException -->
<g id="node22" class="node"><title>\\ShopifyApiException</title>
<polygon fill="none" stroke="black" points="476.82,-88 364.954,-88 364.954,-52 476.82,-52 476.82,-88"/>
<text text-anchor="middle" x="420.887" y="-66.7" font-family="Times,serif" font-size="11.00">ShopifyApiException</text>
</g>
<!-- \\ShopifyApiException&#45;&gt;\\Exception -->
<g id="edge14" class="edge"><title>\\ShopifyApiException&#45;&gt;\\Exception</title>
<path fill="none" stroke="black" d="M364.71,-53.6895C341.1,-46.7102 313.812,-38.6438 291.158,-31.9473"/>
<polygon fill="none" stroke="black" points="292.014,-28.5508 281.432,-29.0724 290.03,-35.2636 292.014,-28.5508"/>
</g>
</g>
</svg>
